<svg id="ServiceLogo" xmlns="http://www.w3.org/2000/svg" xmlns:xlink="http://www.w3.org/1999/xlink" viewBox="0 0 1928.56 391.04"><defs><style>.cls-1{fill:#3d54a1;}.cls-2{fill:none;stroke-miterlimit:10;}.cls-2,.cls-3,.cls-4,.cls-5{stroke:#3d54a1;stroke-width:12px;}.cls-3,.cls-4{stroke-linecap:round;}.cls-3,.cls-4,.cls-5{stroke-linejoin:round;}.cls-3{fill:url(#Безымянный_градиент_242);}.cls-4{fill:url(#Безымянный_градиент_244);}.cls-5{fill:url(#Безымянный_градиент_156);}</style><linearGradient id="Безымянный_градиент_242" x1="758.74" y1="377.29" x2="892.46" y2="243.56" gradientUnits="userSpaceOnUse"><stop offset="0" stop-color="#f1da17"/><stop offset="1" stop-color="#e77b3a"/></linearGradient><linearGradient id="Безымянный_градиент_244" x1="103.51" y1="817.04" x2="298.48" y2="1012.01" gradientUnits="userSpaceOnUse"><stop offset="0" stop-color="#e5d017"/><stop offset="1" stop-color="#e77b3a"/></linearGradient><linearGradient id="Безымянный_градиент_156" x1="-253.95" y1="1002.45" x2="-114.84" y2="1141.56" gradientTransform="matrix(0.33, 0.6, -0.72, 0.4, 1109.72, 450.1)" gradientUnits="userSpaceOnUse"><stop offset="0" stop-color="#7f92ca"/><stop offset="0.4" stop-color="#9374b3"/><stop offset="0.76" stop-color="#a05fa4"/><stop offset="1" stop-color="#a5579e"/></linearGradient></defs><path class="cls-1" d="M1098.73,938.28h71.61l-.42,18.1q14.14-12,25.92-16.93a67,67,0,0,1,25.93-4.9q29,0,47.08,21.28,16.26,19.06,16.25,48.5,0,31.36-18.63,51.54-17.23,18.64-43,18.65a69.91,69.91,0,0,1-27-5.59,103.94,103.94,0,0,1-26.76-16.79l.14,5.11.14,18.1.28,15.06.14,5.12h-71.61l.14-39.38.28-36.62-.42-76.41Zm71.19,30.54V1041a112.38,112.38,0,0,0,18.36,14.16q8.12,4.77,14.15,4.77c3.73,0,5.93-1.8,6.58-5.39q.29-1.8.42-18.66V968.26q0-12-.42-14.37-1-5.8-5.88-5.8-6.32,0-15.28,5.6A91.68,91.68,0,0,0,1169.92,968.82Z" transform="translate(-48.65 -707.53)"/><path class="cls-1" d="M1364,1018.15V1061q0,12.43,1.54,15.75,2.94,6.36,13.87,6.36,16.26,0,32.16-8.77a86.87,86.87,0,0,0,27.54-24.25,42.68,42.68,0,0,1,5.46-6.5,5.63,5.63,0,0,1,3.64-1.38,5,5,0,0,1,3.93,1.73,6.27,6.27,0,0,1,1.54,4.35q0,5.81-9.39,15.61a94.65,94.65,0,0,1-30.62,20.45q-18.29,7.88-35.66,7.88-29.85,0-52.69-19.76a80.09,80.09,0,0,1-26.76-58.45,79.07,79.07,0,0,1,5.6-28.81,76.91,76.91,0,0,1,15.42-24.94,80.42,80.42,0,0,1,105.79-10.64q32.79,23.49,32.51,68.12h-32.65l-42,.14Zm35.87-9.12V968.76q-.28-13-.56-15.51a9.53,9.53,0,0,0-2-4.76q-3.93-5.37-16-5.37-12.33,0-15.41,6.2-2,3.72-2,19.44V1009l17.09.55Z" transform="translate(-48.65 -707.53)"/><path class="cls-1" d="M1661.49,900.56l-.28,67.57-.14,47.81.42,67v6.22h-71.6v-18q-11.51,11.32-22.22,16.16a58.39,58.39,0,0,1-24.31,4.84q-26.62,0-47.36-19.34-25.65-23.91-25.64-60.67,0-35.64,24.8-57.89,22-19.75,49.46-19.76a63.18,63.18,0,0,1,23.62,4.56,79.23,79.23,0,0,1,22.07,13.68l-.56-52.23Zm-71.18,63.56q-10.93-9.81-19.69-14.65t-15.49-4.83c-3.55,0-6,1.26-7.21,3.8s-1.9,7.3-1.9,14.3l.15,6.08v92.85q.13,11.19,1,14,1.68,5.94,8.12,5.94,7,0,14.86-5.18t20.18-18Z" transform="translate(-48.65 -707.53)"/><path class="cls-1" d="M1766.17,938.28v4l-.28,21.55-.28,33.44-.42,50.85.56,28.6.28,12.44h-72l.7-50.85.42-44.91-.28-23.63-.42-26.25.14-5.25Zm-36.3-48.36q37,0,37,19.07,0,9.25-9.74,14.44t-27.4,5.18q-35.18,0-35.17-19.62Q1694.56,890.2,1729.87,889.92Z" transform="translate(-48.65 -707.53)"/><path class="cls-1" d="M1898.87,997.14V980.29q-.13-17.55-.56-21.56a15.86,15.86,0,0,0-2.53-7.19q-5.05-7.72-23.58-7.73-28.62,0-44.21,17.68-6.32,7.18-10.66,7.19a8,8,0,0,1-5.62-2.21,6.78,6.78,0,0,1-2.38-5.12q0-8.7,20.88-18,19.89-8.83,51.42-8.84,51.86,0,73.15,15.47,9.26,6.78,12,15.2t2.8,29.71v54.86q-.56,15.2.92,22.87a52.93,52.93,0,0,0,6.65,16.51h-78.47v-14.51a112,112,0,0,1-25.57,13.13,75.65,75.65,0,0,1-25,4.42,60.83,60.83,0,0,1-37.13-12q-21.16-15.75-21.16-40.9,0-22.24,17.12-35.93,19.92-16.17,49.39-16.17a95,95,0,0,1,21.32,2.15A106.84,106.84,0,0,1,1898.87,997.14Zm0,10q-17.65-8.7-27.33-8.7c-5.42,0-9,2.12-10.65,6.35q-1.4,3.46-1.4,20v33q.13,10.92.7,13.27,1.41,6.36,9.53,6.35,6.45,0,14.37-3.8a57,57,0,0,0,14.5-10Z" transform="translate(-48.65 -707.53)"/><path class="cls-2" d="M1061.8,950.14v55.27a20.89,20.89,0,0,0-10-3q-14.28,0-14.29,21.56v65.36H985.15V1014q0-29.85,16.54-47.6t44.14-17.76A109.28,109.28,0,0,1,1061.8,950.14Z" transform="translate(-48.65 -707.53)"/><polygon id="Star" class="cls-3" points="921.23 272.33 873.43 319.04 884.8 384.9 825.61 353.87 766.49 385.04 777.71 319.15 729.79 272.56 795.92 262.87 825.43 202.9 855.08 262.8 921.23 272.33"/><path class="cls-2" d="M410.43,900.56v52.78H434v54.58H410.43q0,16.44,5.26,22.66T435,1036.8v54.3c-2.71.1-4.72.14-6,.14a72,72,0,0,1-33.56-8.15,67.55,67.55,0,0,1-25.3-22.11q-12-17.82-12.05-47.26V900.56Z" transform="translate(-48.65 -707.53)"/><path class="cls-2" d="M597.08,1028.65H517.63a37.29,37.29,0,0,1-1.82-10.92,37.85,37.85,0,0,1,2.52-13.54H545q-2.81-15.33-17.51-15.34-9.81,0-16,8.22t-6.16,21.08q0,13.39,5.95,21.69t15.63,8.29q7.85,0,15.13-7.74l29.85,35.38q-20.88,16.15-46.38,16.16-31.11,0-52.27-20.59t-21.16-51q0-30.27,21.37-51.13t52.48-20.86q30.4,0,51.07,20.38T597.64,1019C597.64,1021,597.45,1024.23,597.08,1028.65Z" transform="translate(-48.65 -707.53)"/><path class="cls-2" d="M671.21,900.56v188.61H618.8V900.56Z" transform="translate(-48.65 -707.53)"/><path class="cls-2" d="M754.31,900.56v188.61H701.9V900.56Z" transform="translate(-48.65 -707.53)"/><path id="S" class="cls-4" d="M54.76,1089.17c92.81-37.34,184.7-83.56,179.08-121.75-7.32-49.65-174-48.38-179.08-90.24-3.13-25.86,55.58-67.09,293.73-136C261.57,774.89,170.61,819.54,175,861.36c5.48,52.19,155.3,61.08,158.2,104.42C335,992.38,281.35,1031.63,54.76,1089.17Z" transform="translate(-48.65 -707.53)"/><path id="Rocket" class="cls-5" d="M201.64,748l62-3.56a202.49,202.49,0,0,1,66.44-27A180.42,180.42,0,0,1,380.26,714a162.1,162.1,0,0,1-29.07,39A182.88,182.88,0,0,1,288,793.49l-34.58,45.94,2.64-47.37-11.37-19.65Z" transform="translate(-48.65 -707.53)"/></svg>